# xmcd
# 
# Track frame offsets:
#     150
#     21653
#     45052
#     67937
#     91857
#     122549
#     141118
#     162777
#     184498
#     204024
#     225168
#     248113
# 
# Disc length: 3549
# 
# Revision: 6
# Processed by: cddbd v1.5.2PL0 Copyright (c) Steve Scherf et al.
# Submitted via: fre:ac v1.0.31
# 
DISCID=8c0ddb0c
DTITLE=Chris Rea - Blue Guitars - [05 Texas Blues]
DYEAR=2005
DGENRE=Blues
TTITLE0=Lone Rider (Texas Blues)
TTITLE1=Texas Blue
TTITLE2=No Wheels Blues
TTITLE3=Lone Star Boogie
TTITLE4=Blind Willie
TTITLE5=The American Way
TTITLE6=Angellina
TTITLE7=Truck Stop
TTITLE8=Weekend Down Mexico
TTITLE9=Texas Line Boogie
TTITLE10=Too Big City
TTITLE11=Houston Angel
EXTD=CD 2005 - CD 05/11\nJazzee Blue/EarBooks - edel records 9 783937 406329
EXTT0=
EXTT1=
EXTT2=
EXTT3=
EXTT4=
EXTT5=
EXTT6=
EXTT7=
EXTT8=
EXTT9=
EXTT10=
EXTT11=
PLAYORDER=
